<svg width="117" height="90" viewBox="0 0 117 90" fill="none" xmlns="http://www.w3.org/2000/svg">
<path d="M36.7119 28.2063C34.9496 25.5157 32.2254 23.8621 28.5367 23.8621C23.3557 23.8621 19.1055 26.0449 15.7916 30.7182C13.0554 34.5573 11.6879 38.7269 11.6879 43.3773C11.6879 47.1385 12.8216 50.1125 15.0905 52.3787C17.3593 54.6448 20.2137 55.7597 23.6552 55.7597C26.8469 55.7597 29.6651 54.6206 32.1112 52.3652C32.4013 53.4761 32.9816 54.3116 33.8521 54.8852C34.1396 55.0746 34.4915 55.8282 34.8716 55.9558L43.5815 25.5224H37.491L36.7119 28.2063ZM33.8064 42.3202C33.0072 44.6373 32.0602 46.3984 30.9613 47.6046C30.1943 48.4563 29.4179 49.0796 28.6307 49.4758C27.6083 50.0259 26.4644 50.3113 25.3034 50.306C23.7278 50.306 22.4073 49.7149 21.3407 48.5261C20.2728 47.3387 19.7396 45.4863 19.7396 42.973C19.7396 41.0951 20.1237 38.9364 20.8894 36.5024C21.6551 34.067 22.7955 32.1918 24.3081 30.8767C25.8219 29.5603 27.4702 28.9021 29.2513 28.9021C30.909 28.9021 32.2845 29.5012 33.3699 30.6981C34.4593 31.8963 35.0019 33.6116 35.0019 35.8482C35.0019 37.847 34.603 40.0043 33.8064 42.3202Z" fill="url(#paint0_linear_26_16)"/>
<path d="M45.7898 14.3543C41.7278 12.4133 37.0867 11.4434 31.8627 11.4434C25.7078 11.4434 20.2366 12.647 15.4478 15.0515C10.6616 17.456 6.8897 21.0587 4.13328 25.8582C1.37687 30.6564 0 35.8388 0 41.3987C0 46.4655 1.21164 51.1522 3.63627 55.4561C6.0609 59.7613 9.7603 63.0188 14.7345 65.2231C19.3943 67.2904 24.8816 68.3758 31.1776 68.5061L32.7103 63.0443C32.4537 63.0484 32.2173 63.0725 31.9554 63.0725C26.816 63.0725 22.2501 62.2854 18.2633 60.711C14.2724 59.1367 11.1748 56.6396 8.96776 53.2155C6.76075 49.7901 5.65657 45.99 5.65657 41.8151C5.65657 37.5206 6.64522 33.3887 8.62522 29.4206C10.6052 25.4525 13.547 22.3751 17.4546 20.1869C21.3582 18.0013 26.1215 16.9079 31.7391 16.9079C37.0209 16.9079 41.353 17.9718 44.7703 20.0633L46.2976 14.6176C46.127 14.5303 45.9645 14.4376 45.7898 14.3543ZM111.386 16.1194H57.1218L55.6818 21.4925H104.768L67.1843 50.2079C66.874 50.4457 66.33 50.4188 65.9767 50.1461L51.0004 38.6046L49.5457 44.0355L61.7091 53.409C64.491 55.5528 68.9252 55.6401 71.5916 53.6037L109.899 24.3363L97.9133 69.0703C97.7964 69.5001 97.3814 69.8507 96.9891 69.8507H42.7245L41.2845 75.2239H95.5504C98.906 75.2239 102.376 72.4621 103.285 69.069L115.823 22.2743C116.733 18.8812 114.742 16.1194 111.386 16.1194ZM34.3612 90H28.9881L53.1054 0H58.4785L34.3612 90Z" fill="url(#paint1_linear_26_16)"/>
<defs>
<linearGradient id="paint0_linear_26_16" x1="-10.2051" y1="29.2194" x2="2880.34" y2="1377.1" gradientUnits="userSpaceOnUse">
<stop stop-color="#DA6E2A"/>
<stop offset="1" stop-color="#E39E5A"/>
</linearGradient>
<linearGradient id="paint1_linear_26_16" x1="-10.7135" y1="2.65362" x2="10506.4" y2="4906.86" gradientUnits="userSpaceOnUse">
<stop stop-color="#DA6E2A"/>
<stop offset="1" stop-color="#E39E5A"/>
</linearGradient>
</defs>
</svg>
