<svg width="335" height="90" viewBox="0 0 335 90" fill="none" xmlns="http://www.w3.org/2000/svg">
<g clip-path="url(#clip0_1_3)">
<path d="M140.341 63.7403C140.935 64.1484 141.9 64.4082 143.124 64.4082C145.017 64.4082 147.058 63.5176 147.577 61.1058L150.212 48.4156H150.991C159.562 48.4156 166.798 42.4045 166.798 33.0538C166.798 28.1558 163.273 24 154.108 24C143.978 24 136 27.4137 136 33.5733C136 36.1707 137.558 38.5083 140.193 38.5083C140.935 38.5083 141.64 38.3228 142.419 37.9889C141.826 37.2468 141.38 36.3191 141.38 34.9462C141.38 31.0501 144.349 26.4861 153.069 26.4861C158.338 26.4861 160.416 29.6772 160.416 33.462C160.416 40.6605 156.148 45.7069 150.731 45.9666L154.367 28.8237C153.774 28.4156 152.883 28.1558 151.955 28.1558C150.137 28.1558 148.134 28.9722 147.614 31.384L140.341 63.7403ZM177.039 37.5436C169.803 37.5436 163.941 46.5974 163.941 55.6883C163.941 59.0278 165.017 64.4082 170.434 64.4082C173.403 64.4082 176.148 62.2189 178.338 59.1763C178.263 63.2579 180.712 64.4082 183.161 64.4082C185.981 64.4082 189.692 62.0334 192.141 59.2876C192.475 58.9165 192.623 58.5083 192.623 58.1373C192.623 57.6178 192.289 57.1354 191.733 56.8757C190.434 58.1744 188.208 59.4731 186.278 59.4731C184.942 59.4731 184.089 58.5455 184.72 55.6512L188.356 38.4341C187.725 38.026 186.835 37.7662 185.907 37.7662C184.609 37.7662 183.273 38.2486 182.382 39.2876C181.083 38.1373 179.377 37.5436 177.039 37.5436ZM178.449 55.7996C177.039 57.7291 174.85 59.0649 173.18 59.0649C171.584 59.0649 170.397 57.9147 170.397 55.3173C170.397 49.6772 172.623 41.4397 178.894 41.4397C179.673 41.4397 180.453 41.551 181.343 41.885L178.449 55.7996ZM218.226 59.2134C219.117 58.4341 218.968 57.2839 218.189 56.616C216.371 58.1744 213.588 59.7328 210.731 61.1429C210.917 60.475 211.065 59.7328 211.213 59.0278L215.592 38.4341C214.961 38.026 214.07 37.7662 213.143 37.7662C211.844 37.7662 210.434 38.2486 209.544 39.2876C208.245 38.1373 206.575 37.5436 204.237 37.5436C197.039 37.5436 191.176 46.5974 191.176 55.6883C191.176 59.0278 192.252 64.4082 197.67 64.4082C200.453 64.4082 203.124 62.4416 205.239 59.5844C204.831 61.0315 204.46 62.3302 204.089 63.6289C197.076 66.2263 188.987 71.1614 188.987 77.6178C188.987 81.9221 191.955 84 195.109 84C204.089 84 207.725 73.7588 210.063 64.1113C213.774 62.4045 217.299 60.0668 218.226 59.2134ZM205.647 55.7996C204.237 57.7291 202.085 59.0649 200.416 59.0649C198.783 59.0649 197.596 57.9147 197.596 55.3173C197.596 49.6772 199.822 41.4397 206.13 41.4397C206.909 41.4397 207.688 41.551 208.579 41.885L205.647 55.7996ZM194.627 79.3618C193.959 79.3618 192.512 78.7681 192.512 76.9499C192.512 73.462 197.299 69.5659 203.013 67.2653C200.341 75.7996 198.226 79.3618 194.627 79.3618ZM236.037 42.5529C236.037 40.2152 234.85 37.5436 230.137 37.5436C221.566 37.5436 217.076 48.3785 217.076 55.1317C217.076 61.5139 221.046 64.4082 225.907 64.4082C230.954 64.4082 236.965 61.2913 240.564 56.0594C241.121 55.1317 240.601 54.0186 239.265 54.2783C237.039 57.2468 232.252 59.8813 228.505 59.8813C226.13 59.8813 224.2 58.8423 223.681 56.0594C233.699 50.4935 236.037 46.9685 236.037 42.5529ZM230.471 41.6252C231.362 41.6252 231.993 42.4416 231.993 43.6289C231.993 47.0056 228.579 50.6419 223.532 53.833C223.681 50.1967 225.351 41.6252 230.471 41.6252ZM248.245 40.6234C248.727 38.6568 247.614 37.7662 245.759 37.7662C243.57 37.7662 241.714 38.8423 239.933 40.2523C238.894 41.1058 239.265 42.7013 239.933 43.1095C240.416 42.7013 240.712 42.4787 240.972 42.4787C241.455 42.4787 241.714 42.961 241.492 43.7774L237.224 63.7403C237.855 64.1484 238.746 64.4082 239.673 64.4082C241.566 64.4082 243.532 63.5176 244.052 61.1429L247.206 46.3377C248.616 44.6679 250.137 43.6289 251.993 43.6289C253.699 43.6289 253.588 45.039 253.254 46.7087L249.618 63.7403C250.211 64.1484 251.102 64.4082 252.03 64.4082C253.922 64.4082 255.889 63.5176 256.408 61.1429L259.636 46.0408C260.972 44.5566 262.382 43.6289 264.163 43.6289C265.87 43.6289 265.796 45.039 265.388 46.7087L263.199 57.0241C261.9 63.1095 264.683 64.4082 267.28 64.4082C270.731 64.4082 274.219 62.0334 276.668 59.2876C276.965 58.9165 277.15 58.5083 277.15 58.1373C277.15 57.6178 276.816 57.1354 276.26 56.8757C274.961 58.1744 272.735 59.4731 270.805 59.4731C269.766 59.4731 269.098 58.8423 269.395 57.3581L271.955 45.41C273.291 39.3247 269.915 37.7662 267.577 37.7662C264.571 37.7662 261.974 39.9926 259.785 43.1095C259.933 39.436 257.558 37.7662 255.406 37.7662C252.475 37.7662 249.878 39.8813 247.725 42.961L248.245 40.6234ZM288.764 37.5436C281.566 37.5436 275.666 46.5974 275.666 55.6883C275.666 59.0278 276.779 64.4082 282.16 64.4082C285.128 64.4082 287.874 62.2189 290.063 59.1763C290.026 63.2579 292.475 64.4082 294.887 64.4082C297.707 64.4082 301.455 62.0334 303.904 59.2876C304.2 58.9165 304.349 58.5083 304.349 58.1373C304.349 57.6178 304.052 57.1354 303.458 56.8757C302.16 58.1744 299.933 59.4731 298.004 59.4731C296.668 59.4731 295.852 58.5455 296.445 55.6512L300.082 38.4341C299.488 38.026 298.597 37.7662 297.67 37.7662C296.371 37.7662 294.998 38.2486 294.108 39.2876C292.809 38.1373 291.102 37.5436 288.764 37.5436ZM290.174 55.7996C288.764 57.7291 286.575 59.0649 284.942 59.0649C283.31 59.0649 282.122 57.9147 282.122 55.3173C282.122 49.6772 284.349 41.4397 290.657 41.4397C291.436 41.4397 292.215 41.551 293.069 41.885L290.174 55.7996ZM307.466 31.0501C307.169 33.0909 308.653 34.6865 310.694 34.6865C312.735 34.6865 314.442 33.0909 314.738 31.0501C314.961 29.0464 313.44 27.4137 311.436 27.4137C309.395 27.4137 307.688 29.0464 307.466 31.0501ZM302.753 58.2486C301.751 62.961 304.757 64.4082 307.354 64.4082C310.842 64.4082 314.33 62.0334 316.779 59.2876C317.076 58.9165 317.224 58.5083 317.224 58.1373C317.224 57.6178 316.928 57.1354 316.371 56.8757C315.072 58.1744 312.809 59.4731 310.917 59.4731C309.544 59.4731 308.727 58.5455 309.358 55.6512L312.512 40.6234C312.92 38.6568 311.881 37.7662 310.026 37.7662C307.837 37.7662 305.981 38.8423 304.2 40.2523C303.161 41.1058 303.532 42.7013 304.2 43.1095C304.683 42.7013 304.98 42.4787 305.239 42.4787C305.722 42.4787 305.907 42.961 305.759 43.7774L302.753 58.2486ZM334.553 55.9481C334.887 54.9462 334.293 53.833 333.291 53.9814C332.289 56.8386 328.134 59.3618 325.276 59.3618C323.458 59.3618 322.122 58.3228 322.493 55.6512C322.531 55.0204 322.642 54.3525 322.753 53.7217C329.432 43.4805 332.809 35.1688 332.809 31.1243C332.809 28.4156 331.102 26.8942 328.653 26.8942C321.863 26.8942 318.375 37.9147 316 56.7273C315.332 62.1818 318.078 64.4082 321.714 64.4082C326.501 64.4082 332.735 60.6605 334.553 55.9481ZM329.024 30.3451C329.618 30.3451 329.915 30.6048 329.915 31.4954C329.915 33.2393 327.985 40.6234 323.421 49.0835C325.202 38.1373 327.317 30.3451 329.024 30.3451Z" fill="white"/>
<path d="M37.1332 28.2063C35.3708 25.5157 32.6466 23.8621 28.958 23.8621C23.7769 23.8621 19.5268 26.0449 16.2129 30.7182C13.4766 34.5573 12.1092 38.7269 12.1092 43.3773C12.1092 47.1385 13.2429 50.1125 15.5117 52.3787C17.7805 54.6448 20.635 55.7597 24.0765 55.7597C27.2681 55.7597 30.0863 54.6206 32.5324 52.3652C32.8226 53.4761 33.4029 54.3116 34.2733 54.8852C34.5608 55.0746 34.9127 55.8282 35.2929 55.9558L44.0027 25.5224H37.9123L37.1332 28.2063ZM34.2277 42.3202C33.4284 44.6373 32.4814 46.3984 31.3826 47.6046C30.6156 48.4563 29.8392 49.0796 29.052 49.4758C28.0296 50.0259 26.8857 50.3113 25.7247 50.306C24.149 50.306 22.8286 49.7149 21.762 48.5261C20.6941 47.3387 20.1608 45.4863 20.1608 42.973C20.1608 41.0951 20.545 38.9364 21.3107 36.5024C22.0763 34.067 23.2168 32.1918 24.7293 30.8767C26.2432 29.5603 27.8914 28.9021 29.6726 28.9021C31.3302 28.9021 32.7057 29.5012 33.7911 30.6981C34.8805 31.8963 35.4232 33.6116 35.4232 35.8482C35.4232 37.847 35.0242 40.0043 34.2277 42.3202Z" fill="white"/>
<path d="M46.2111 14.3543C42.149 12.4133 37.508 11.4434 32.2839 11.4434C26.129 11.4434 20.6578 12.647 15.869 15.0515C11.0829 17.456 7.31097 21.0587 4.55455 25.8582C1.79813 30.6564 0.421265 35.8388 0.421265 41.3987C0.421265 46.4655 1.63291 51.1522 4.05753 55.4561C6.48216 59.7613 10.1816 63.0188 15.1557 65.2231C19.8156 67.2904 25.3029 68.3758 31.5989 68.5061L33.1316 63.0443C32.875 63.0484 32.6386 63.0725 32.3766 63.0725C27.2372 63.0725 22.6714 62.2854 18.6845 60.711C14.6937 59.1367 11.596 56.6396 9.38903 53.2155C7.18201 49.7901 6.07783 45.99 6.07783 41.8151C6.07783 37.5206 7.06649 33.3887 9.04649 29.4206C11.0265 25.4525 13.9683 22.3751 17.8759 20.1869C21.7795 18.0013 26.5428 16.9079 32.1604 16.9079C37.4422 16.9079 41.7743 17.9718 45.1916 20.0633L46.7189 14.6176C46.5483 14.5303 46.3857 14.4376 46.2111 14.3543ZM111.808 16.1194H57.5431L56.1031 21.4925H105.189L67.6056 50.2079C67.2953 50.4457 66.7513 50.4188 66.398 50.1461L51.4217 38.6046L49.9669 44.0355L62.1304 53.409C64.9123 55.5528 69.3465 55.6401 72.0129 53.6037L110.321 24.3363L98.3346 69.0703C98.2177 69.5001 97.8026 69.8507 97.4104 69.8507H43.1457L41.7057 75.2239H95.9717C99.3272 75.2239 102.797 72.4621 103.706 69.069L116.245 22.2743C117.154 18.8812 115.163 16.1194 111.808 16.1194ZM34.7825 90H29.4093L53.5266 0H58.8998L34.7825 90Z" fill="white"/>
</g>
<defs>
<clipPath id="clip0_1_3">
<rect width="335" height="90" fill="white"/>
</clipPath>
</defs>
</svg>
