<svg data-v-423bf9ae="" xmlns="http://www.w3.org/2000/svg" viewBox="0 0 198.6463179973618 60" class="font"><!----><!----><!----><g data-v-423bf9ae="" id="99e0c9a3-7b36-4b67-bf98-3915b9f74b90" fill="black" transform="matrix(3.7105751216391827,0,0,3.7105751216391827,-1.6697584433180594,1.0389607702614185)"><path d="M1.62 10.43C1.78 10.54 2.04 10.61 2.37 10.61C2.88 10.61 3.43 10.37 3.57 9.72L4.28 6.30L4.49 6.30C6.80 6.30 8.75 4.68 8.75 2.16C8.75 0.84 7.80-0.28 5.33-0.28C2.60-0.28 0.45 0.64 0.45 2.30C0.45 3.00 0.87 3.63 1.58 3.63C1.78 3.63 1.97 3.58 2.18 3.49C2.02 3.29 1.90 3.04 1.90 2.67C1.90 1.62 2.70 0.39 5.05 0.39C6.47 0.39 7.03 1.25 7.03 2.27C7.03 4.21 5.88 5.57 4.42 5.64L5.40 1.02C5.24 0.91 5.00 0.84 4.75 0.84C4.26 0.84 3.72 1.06 3.58 1.71ZM11.51 3.37C9.56 3.37 7.98 5.81 7.98 8.26C7.98 9.16 8.27 10.61 9.73 10.61C10.53 10.61 11.27 10.02 11.86 9.20C11.84 10.30 12.50 10.61 13.16 10.61C13.92 10.61 14.92 9.97 15.58 9.23C15.67 9.13 15.71 9.02 15.71 8.92C15.71 8.78 15.62 8.65 15.47 8.58C15.12 8.93 14.52 9.28 14 9.28C13.64 9.28 13.41 9.03 13.58 8.25L14.56 3.61C14.39 3.50 14.15 3.43 13.90 3.43C13.55 3.43 13.19 3.56 12.95 3.84C12.60 3.53 12.14 3.37 11.51 3.37ZM11.89 8.29C11.51 8.81 10.92 9.17 10.47 9.17C10.04 9.17 9.72 8.86 9.72 8.16C9.72 6.64 10.32 4.42 12.01 4.42C12.22 4.42 12.43 4.45 12.67 4.54ZM22.61 9.21C22.85 9.00 22.81 8.69 22.60 8.51C22.11 8.93 21.36 9.35 20.59 9.73C20.64 9.55 20.68 9.35 20.72 9.16L21.90 3.61C21.73 3.50 21.49 3.43 21.24 3.43C20.89 3.43 20.51 3.56 20.27 3.84C19.92 3.53 19.47 3.37 18.84 3.37C16.90 3.37 15.32 5.81 15.32 8.26C15.32 9.16 15.61 10.61 17.07 10.61C17.82 10.61 18.54 10.08 19.11 9.31C19.00 9.70 18.90 10.05 18.80 10.40C16.91 11.10 14.73 12.43 14.73 14.17C14.73 15.33 15.53 15.89 16.38 15.89C18.80 15.89 19.78 13.13 20.41 10.53C21.41 10.07 22.36 9.44 22.61 9.21ZM19.22 8.29C18.84 8.81 18.26 9.17 17.81 9.17C17.37 9.17 17.05 8.86 17.05 8.16C17.05 6.64 17.65 4.42 19.35 4.42C19.56 4.42 19.77 4.45 20.01 4.54ZM16.25 14.64C16.07 14.64 15.68 14.48 15.68 13.99C15.68 13.05 16.97 12.00 18.51 11.38C17.79 13.68 17.22 14.64 16.25 14.64ZM27.41 4.72C27.41 4.09 27.09 3.37 25.82 3.37C23.51 3.37 22.30 6.29 22.30 8.11C22.30 9.83 23.37 10.61 24.68 10.61C26.04 10.61 27.66 9.77 28.63 8.36C28.78 8.11 28.64 7.81 28.28 7.88C27.68 8.68 26.39 9.39 25.38 9.39C24.74 9.39 24.22 9.11 24.08 8.36C26.78 6.86 27.41 5.91 27.41 4.72ZM25.91 4.47C26.15 4.47 26.32 4.69 26.32 5.01C26.32 5.92 25.40 6.90 24.04 7.76C24.08 6.78 24.53 4.47 25.91 4.47ZM30.70 4.20C30.83 3.67 30.53 3.43 30.03 3.43C29.44 3.43 28.94 3.72 28.46 4.10C28.18 4.33 28.28 4.76 28.46 4.87C28.59 4.76 28.67 4.70 28.74 4.70C28.87 4.70 28.94 4.83 28.88 5.05L27.73 10.43C27.90 10.54 28.14 10.61 28.39 10.61C28.90 10.61 29.43 10.37 29.57 9.73L30.42 5.74C30.80 5.29 31.21 5.01 31.71 5.01C32.17 5.01 32.14 5.39 32.05 5.84L31.07 10.43C31.23 10.54 31.47 10.61 31.72 10.61C32.23 10.61 32.76 10.37 32.90 9.73L33.77 5.66C34.13 5.26 34.51 5.01 34.99 5.01C35.45 5.01 35.43 5.39 35.32 5.84L34.73 8.62C34.38 10.26 35.13 10.61 35.83 10.61C36.76 10.61 37.70 9.97 38.36 9.23C38.44 9.13 38.49 9.02 38.49 8.92C38.49 8.78 38.40 8.65 38.25 8.58C37.90 8.93 37.30 9.28 36.78 9.28C36.50 9.28 36.32 9.11 36.40 8.71L37.09 5.49C37.45 3.85 36.54 3.43 35.91 3.43C35.10 3.43 34.40 4.03 33.81 4.87C33.85 3.88 33.21 3.43 32.63 3.43C31.84 3.43 31.14 4.00 30.56 4.83ZM41.62 3.37C39.68 3.37 38.09 5.81 38.09 8.26C38.09 9.16 38.39 10.61 39.84 10.61C40.64 10.61 41.38 10.02 41.97 9.20C41.96 10.30 42.62 10.61 43.27 10.61C44.03 10.61 45.04 9.97 45.70 9.23C45.78 9.13 45.82 9.02 45.82 8.92C45.82 8.78 45.74 8.65 45.58 8.58C45.23 8.93 44.63 9.28 44.11 9.28C43.75 9.28 43.53 9.03 43.69 8.25L44.67 3.61C44.51 3.50 44.27 3.43 44.02 3.43C43.67 3.43 43.30 3.56 43.06 3.84C42.71 3.53 42.25 3.37 41.62 3.37ZM42 8.29C41.62 8.81 41.03 9.17 40.59 9.17C40.15 9.17 39.83 8.86 39.83 8.16C39.83 6.64 40.43 4.42 42.13 4.42C42.34 4.42 42.55 4.45 42.78 4.54ZM46.66 1.62C46.58 2.17 46.98 2.60 47.53 2.60C48.08 2.60 48.54 2.17 48.62 1.62C48.68 1.08 48.27 0.64 47.73 0.64C47.18 0.64 46.72 1.08 46.66 1.62ZM45.39 8.95C45.12 10.22 45.93 10.61 46.63 10.61C47.57 10.61 48.51 9.97 49.17 9.23C49.25 9.13 49.29 9.02 49.29 8.92C49.29 8.78 49.21 8.65 49.06 8.58C48.71 8.93 48.10 9.28 47.59 9.28C47.22 9.28 47.00 9.03 47.17 8.25L48.02 4.20C48.13 3.67 47.85 3.43 47.35 3.43C46.76 3.43 46.26 3.72 45.78 4.10C45.50 4.33 45.60 4.76 45.78 4.87C45.91 4.76 45.99 4.70 46.06 4.70C46.19 4.70 46.24 4.83 46.20 5.05ZM53.96 8.33C54.05 8.06 53.89 7.76 53.62 7.80C53.35 8.57 52.23 9.25 51.46 9.25C50.97 9.25 50.61 8.97 50.71 8.25C50.72 8.08 50.75 7.90 50.78 7.73C52.58 4.97 53.49 2.73 53.49 1.64C53.49 0.91 53.03 0.50 52.37 0.50C50.54 0.50 49.60 3.47 48.96 8.54C48.78 10.01 49.52 10.61 50.50 10.61C51.79 10.61 53.47 9.60 53.96 8.33ZM52.47 1.43C52.63 1.43 52.71 1.50 52.71 1.74C52.71 2.21 52.19 4.20 50.96 6.48C51.44 3.53 52.01 1.43 52.47 1.43Z"></path></g><!----><!----></svg>