<svg width="199" height="60" viewBox="0 0 199 60" fill="none" xmlns="http://www.w3.org/2000/svg">
<path d="M4.38486 39.7403C4.97855 40.1484 5.9433 40.4082 7.16779 40.4082C9.06018 40.4082 11.101 39.5176 11.6205 37.1058L14.255 24.4156H15.0342C23.6056 24.4156 30.8413 18.4045 30.8413 9.0538C30.8413 4.15584 27.3162 0 18.1511 0C8.02122 0 0.0434875 3.41373 0.0434875 9.57328C0.0434875 12.1707 1.60193 14.5083 4.23644 14.5083C4.97855 14.5083 5.68356 14.3228 6.46278 13.9889C5.86909 13.2468 5.42382 12.3191 5.42382 10.9462C5.42382 7.05009 8.39228 2.48609 17.1121 2.48609C22.3812 2.48609 24.4591 5.67718 24.4591 9.46197C24.4591 16.6605 20.1919 21.7069 14.7745 21.9666L18.4108 4.82375C17.8171 4.41558 16.9266 4.15584 15.999 4.15584C14.1808 4.15584 12.1771 4.97217 11.6576 7.38404L4.38486 39.7403ZM41.0824 13.5436C33.8468 13.5436 27.9841 22.5974 27.9841 31.6883C27.9841 35.0278 29.0602 40.4082 34.4776 40.4082C37.4461 40.4082 40.1919 38.2189 42.3811 35.1763C42.3069 39.2579 44.7559 40.4082 47.2049 40.4082C50.0249 40.4082 53.7355 38.0334 56.1845 35.2876C56.5184 34.9165 56.6669 34.5083 56.6669 34.1373C56.6669 33.6178 56.3329 33.1354 55.7763 32.8757C54.4776 34.1744 52.2513 35.4731 50.3218 35.4731C48.986 35.4731 48.1325 34.5455 48.7633 31.6512L52.3997 14.4341C51.7689 14.026 50.8784 13.7662 49.9507 13.7662C48.652 13.7662 47.3162 14.2486 46.4257 15.2876C45.127 14.1373 43.4201 13.5436 41.0824 13.5436ZM42.4925 31.7996C41.0825 33.7291 38.8932 35.0649 37.2235 35.0649C35.6279 35.0649 34.4405 33.9147 34.4405 31.3173C34.4405 25.6772 36.6669 17.4397 42.9377 17.4397C43.717 17.4397 44.4962 17.551 45.3867 17.885L42.4925 31.7996ZM82.2698 35.2134C83.1604 34.4341 83.0119 33.2839 82.2327 32.616C80.4145 34.1744 77.6316 35.7328 74.7745 37.1429C74.96 36.475 75.1084 35.7328 75.2568 35.0278L79.6353 14.4341C79.0045 14.026 78.114 13.7662 77.1863 13.7662C75.8876 13.7662 74.4776 14.2486 73.5871 15.2876C72.2884 14.1373 70.6186 13.5436 68.281 13.5436C61.0824 13.5436 55.2197 22.5974 55.2197 31.6883C55.2197 35.0278 56.2958 40.4082 61.7132 40.4082C64.4962 40.4082 67.1678 38.4416 69.2828 35.5844C68.8747 37.0315 68.5036 38.3302 68.1325 39.6289C61.1195 42.2263 53.0305 47.1614 53.0305 53.6178C53.0305 57.9221 55.999 60 59.1529 60C68.1325 60 71.7689 49.7588 74.1066 40.1113C77.8171 38.4045 81.3422 36.0668 82.2698 35.2134ZM69.691 31.7996C68.281 33.7291 66.1288 35.0649 64.4591 35.0649C62.8264 35.0649 61.639 33.9147 61.639 31.3173C61.639 25.6772 63.8654 17.4397 70.1734 17.4397C70.9526 17.4397 71.7318 17.551 72.6223 17.885L69.691 31.7996ZM58.6706 55.3618C58.0027 55.3618 56.5555 54.7681 56.5555 52.9499C56.5555 49.462 61.3422 45.5659 67.0565 43.2653C64.3849 51.7996 62.2698 55.3618 58.6706 55.3618ZM100.081 18.5529C100.081 16.2152 98.8932 13.5436 94.1808 13.5436C85.6093 13.5436 81.1195 24.3785 81.1195 31.1317C81.1195 37.5139 85.0899 40.4082 89.9507 40.4082C94.9971 40.4082 101.008 37.2913 104.607 32.0594C105.164 31.1317 104.645 30.0186 103.309 30.2783C101.082 33.2468 96.2958 35.8813 92.5481 35.8813C90.1734 35.8813 88.2439 34.8423 87.7244 32.0594C97.7429 26.4935 100.081 22.9685 100.081 18.5529ZM94.5147 17.6252C95.4053 17.6252 96.0361 18.4416 96.0361 19.6289C96.0361 23.0056 92.6223 26.6419 87.576 29.833C87.7244 26.1967 89.3941 17.6252 94.5147 17.6252ZM112.288 16.6234C112.771 14.6568 111.658 13.7662 109.802 13.7662C107.613 13.7662 105.758 14.8423 103.977 16.2523C102.938 17.1058 103.309 18.7013 103.977 19.1095C104.459 18.7013 104.756 18.4787 105.016 18.4787C105.498 18.4787 105.758 18.961 105.535 19.7774L101.268 39.7403C101.899 40.1484 102.789 40.4082 103.717 40.4082C105.609 40.4082 107.576 39.5176 108.095 37.1429L111.249 22.3377C112.659 20.6679 114.181 19.6289 116.036 19.6289C117.743 19.6289 117.632 21.039 117.298 22.7087L113.661 39.7403C114.255 40.1484 115.146 40.4082 116.073 40.4082C117.966 40.4082 119.932 39.5176 120.452 37.1429L123.68 22.0408C125.016 20.5566 126.426 19.6289 128.207 19.6289C129.914 19.6289 129.839 21.039 129.431 22.7087L127.242 33.0241C125.943 39.1095 128.726 40.4082 131.324 40.4082C134.774 40.4082 138.262 38.0334 140.711 35.2876C141.008 34.9165 141.194 34.5083 141.194 34.1373C141.194 33.6178 140.86 33.1354 140.303 32.8757C139.005 34.1744 136.778 35.4731 134.849 35.4731C133.81 35.4731 133.142 34.8423 133.439 33.3581L135.999 21.41C137.335 15.3247 133.958 13.7662 131.62 13.7662C128.615 13.7662 126.018 15.9926 123.828 19.1095C123.977 15.436 121.602 13.7662 119.45 13.7662C116.518 13.7662 113.921 15.8813 111.769 18.961L112.288 16.6234ZM152.808 13.5436C145.609 13.5436 139.71 22.5974 139.71 31.6883C139.71 35.0278 140.823 40.4082 146.203 40.4082C149.171 40.4082 151.917 38.2189 154.107 35.1763C154.069 39.2579 156.518 40.4082 158.93 40.4082C161.75 40.4082 165.498 38.0334 167.947 35.2876C168.244 34.9165 168.392 34.5083 168.392 34.1373C168.392 33.6178 168.095 33.1354 167.502 32.8757C166.203 34.1744 163.977 35.4731 162.047 35.4731C160.711 35.4731 159.895 34.5455 160.489 31.6512L164.125 14.4341C163.531 14.026 162.641 13.7662 161.713 13.7662C160.415 13.7662 159.042 14.2486 158.151 15.2876C156.852 14.1373 155.146 13.5436 152.808 13.5436ZM154.218 31.7996C152.808 33.7291 150.619 35.0649 148.986 35.0649C147.353 35.0649 146.166 33.9147 146.166 31.3173C146.166 25.6772 148.392 17.4397 154.7 17.4397C155.479 17.4397 156.259 17.551 157.112 17.885L154.218 31.7996ZM171.509 7.05009C171.212 9.09091 172.697 10.6865 174.737 10.6865C176.778 10.6865 178.485 9.09091 178.782 7.05009C179.005 5.04638 177.483 3.41373 175.479 3.41373C173.439 3.41373 171.732 5.04638 171.509 7.05009ZM166.797 34.2486C165.795 38.961 168.8 40.4082 171.398 40.4082C174.886 40.4082 178.374 38.0334 180.823 35.2876C181.12 34.9165 181.268 34.5083 181.268 34.1373C181.268 33.6178 180.971 33.1354 180.415 32.8757C179.116 34.1744 176.852 35.4731 174.96 35.4731C173.587 35.4731 172.771 34.5455 173.402 31.6512L176.556 16.6234C176.964 14.6568 175.925 13.7662 174.069 13.7662C171.88 13.7662 170.025 14.8423 168.244 16.2523C167.205 17.1058 167.576 18.7013 168.244 19.1095C168.726 18.7013 169.023 18.4787 169.283 18.4787C169.765 18.4787 169.951 18.961 169.802 19.7774L166.797 34.2486ZM198.596 31.9481C198.93 30.9462 198.337 29.833 197.335 29.9814C196.333 32.8386 192.177 35.3618 189.32 35.3618C187.502 35.3618 186.166 34.3228 186.537 31.6512C186.574 31.0204 186.685 30.3525 186.797 29.7217C193.476 19.4805 196.852 11.1688 196.852 7.1243C196.852 4.41558 195.146 2.89425 192.697 2.89425C185.906 2.89425 182.418 13.9147 180.043 32.7273C179.376 38.1818 182.121 40.4082 185.758 40.4082C190.544 40.4082 196.778 36.6605 198.596 31.9481ZM193.068 6.34508C193.661 6.34508 193.958 6.60482 193.958 7.49536C193.958 9.23933 192.029 16.6234 187.465 25.0835C189.246 14.1373 191.361 6.34508 193.068 6.34508Z" fill="#321E0F"/>
</svg>
