<svg width="393" height="90" viewBox="0 0 393 90" fill="none" xmlns="http://www.w3.org/2000/svg">
<path d="M135.282 65.3506C136.004 65.8472 137.178 66.1633 138.668 66.1633C140.97 66.1633 143.453 65.0798 144.085 62.1453L147.291 46.7056H148.239C158.667 46.7056 167.471 39.3921 167.471 28.0155C167.471 22.0563 163.182 17 152.031 17C139.706 17 130 21.1534 130 28.6475C130 31.8077 131.896 34.6518 135.101 34.6518C136.004 34.6518 136.862 34.4261 137.81 34.0198C137.088 33.1169 136.546 31.9882 136.546 30.3179C136.546 25.5776 140.158 20.0247 150.767 20.0247C157.177 20.0247 159.706 23.9072 159.706 28.5121C159.706 37.2703 154.514 43.41 147.923 43.726L152.347 22.8689C151.625 22.3723 150.541 22.0563 149.412 22.0563C147.2 22.0563 144.763 23.0495 144.13 25.9839L135.282 65.3506ZM179.931 33.478C171.127 33.478 163.994 44.4935 163.994 55.5541C163.994 59.6172 165.304 66.1633 171.895 66.1633C175.506 66.1633 178.847 63.4997 181.511 59.7978C181.421 64.7638 184.4 66.1633 187.38 66.1633C190.811 66.1633 195.325 63.274 198.305 59.9332C198.711 59.4818 198.892 58.9852 198.892 58.5337C198.892 57.9017 198.485 57.3148 197.808 56.9988C196.228 58.5788 193.519 60.1589 191.172 60.1589C189.547 60.1589 188.508 59.0303 189.276 55.509L193.7 34.5615C192.933 34.0649 191.849 33.7489 190.72 33.7489C189.14 33.7489 187.515 34.3358 186.432 35.5999C184.852 34.2004 182.775 33.478 179.931 33.478ZM181.646 55.6895C179.931 58.0371 177.267 59.6623 175.236 59.6623C173.294 59.6623 171.85 58.2628 171.85 55.1027C171.85 48.2406 174.558 38.2183 182.188 38.2183C183.136 38.2183 184.084 38.3537 185.168 38.7601L181.646 55.6895ZM230.042 59.8429C231.126 58.8949 230.945 57.4954 229.997 56.6827C227.785 58.5788 224.399 60.4749 220.923 62.1905C221.148 61.3779 221.329 60.475 221.51 59.6172L226.837 34.5615C226.069 34.0649 224.986 33.7489 223.857 33.7489C222.277 33.7489 220.562 34.3358 219.478 35.5999C217.898 34.2004 215.866 33.478 213.022 33.478C204.264 33.478 197.131 44.4935 197.131 55.5541C197.131 59.6172 198.44 66.1633 205.032 66.1633C208.417 66.1633 211.668 63.7706 214.241 60.2944C213.745 62.055 213.293 63.6351 212.842 65.2152C204.309 68.3754 194.468 74.3797 194.468 82.235C194.468 87.4719 198.079 90 201.917 90C212.842 90 217.266 77.5399 220.11 65.8021C224.625 63.7254 228.913 60.8813 230.042 59.8429ZM214.738 55.6895C213.022 58.0371 210.404 59.6623 208.372 59.6623C206.386 59.6623 204.941 58.2628 204.941 55.1027C204.941 48.2406 207.65 38.2183 215.325 38.2183C216.273 38.2183 217.221 38.3537 218.304 38.7601L214.738 55.6895ZM201.33 84.3568C200.517 84.3568 198.756 83.6345 198.756 81.4224C198.756 77.1787 204.58 72.4385 211.532 69.6395C208.282 80.0229 205.709 84.3568 201.33 84.3568ZM251.712 39.5727C251.712 36.7285 250.267 33.478 244.534 33.478C234.105 33.478 228.643 46.6605 228.643 54.8769C228.643 62.6419 233.473 66.1633 239.387 66.1633C245.527 66.1633 252.84 62.3711 257.22 56.0056C257.897 54.8769 257.265 53.5226 255.639 53.8386C252.931 57.4502 247.107 60.6555 242.547 60.6555C239.658 60.6555 237.31 59.3915 236.678 56.0056C248.868 49.2338 251.712 44.945 251.712 39.5727ZM244.94 38.444C246.023 38.444 246.791 39.4372 246.791 40.8819C246.791 44.9901 242.638 49.4143 236.498 53.2968C236.678 48.8726 238.71 38.444 244.94 38.444ZM266.565 37.2251C267.152 34.8324 265.797 33.7489 263.54 33.7489C260.876 33.7489 258.619 35.0581 256.452 36.7737C255.188 37.812 255.639 39.7532 256.452 40.2498C257.039 39.7532 257.4 39.4824 257.716 39.4824C258.303 39.4824 258.619 40.0693 258.348 41.0625L253.156 65.3506C253.924 65.8472 255.007 66.1633 256.136 66.1633C258.438 66.1633 260.831 65.0798 261.463 62.1905L265.301 44.1775C267.016 42.1459 268.867 40.8819 271.124 40.8819C273.201 40.8819 273.066 42.5974 272.659 44.6289L268.235 65.3506C268.957 65.8472 270.041 66.1633 271.169 66.1633C273.472 66.1633 275.865 65.0798 276.497 62.1905L280.424 43.8163C282.049 42.0105 283.765 40.8819 285.932 40.8819C288.009 40.8819 287.918 42.5974 287.422 44.6289L284.758 57.1793C283.178 64.5832 286.564 66.1633 289.724 66.1633C293.923 66.1633 298.166 63.274 301.146 59.9332C301.507 59.4818 301.733 58.9852 301.733 58.5337C301.733 57.9017 301.327 57.3148 300.649 56.9988C299.069 58.5788 296.361 60.1589 294.013 60.1589C292.749 60.1589 291.936 59.3915 292.297 57.5857L295.412 43.0489C297.038 35.645 292.929 33.7489 290.085 33.7489C286.429 33.7489 283.268 36.4576 280.605 40.2498C280.785 35.7805 277.896 33.7489 275.278 33.7489C271.711 33.7489 268.551 36.3222 265.933 40.0693L266.565 37.2251ZM315.863 33.478C307.105 33.478 299.927 44.4935 299.927 55.5541C299.927 59.6172 301.281 66.1633 307.827 66.1633C311.439 66.1633 314.78 63.4997 317.443 59.7978C317.398 64.7638 320.378 66.1633 323.312 66.1633C326.743 66.1633 331.303 63.274 334.283 59.9332C334.644 59.4818 334.824 58.9852 334.824 58.5337C334.824 57.9017 334.463 57.3148 333.741 56.9988C332.161 58.5788 329.452 60.1589 327.105 60.1589C325.479 60.1589 324.486 59.0303 325.208 55.509L329.633 34.5615C328.91 34.0649 327.827 33.7489 326.698 33.7489C325.118 33.7489 323.448 34.3358 322.364 35.5999C320.784 34.2004 318.707 33.478 315.863 33.478ZM317.579 55.6895C315.863 58.0371 313.2 59.6623 311.213 59.6623C309.227 59.6623 307.782 58.2628 307.782 55.1027C307.782 48.2406 310.491 38.2183 318.166 38.2183C319.114 38.2183 320.062 38.3537 321.1 38.7601L317.579 55.6895ZM338.617 25.5776C338.255 28.0606 340.061 30.0019 342.544 30.0019C345.027 30.0019 347.104 28.0606 347.465 25.5776C347.736 23.1398 345.885 21.1534 343.447 21.1534C340.964 21.1534 338.887 23.1398 338.617 25.5776ZM332.883 58.6691C331.664 64.4026 335.321 66.1633 338.481 66.1633C342.725 66.1633 346.968 63.274 349.948 59.9332C350.309 59.4818 350.49 58.9852 350.49 58.5337C350.49 57.9017 350.129 57.3148 349.451 56.9988C347.871 58.5788 345.117 60.1589 342.815 60.1589C341.145 60.1589 340.152 59.0303 340.919 55.509L344.756 37.2251C345.253 34.8324 343.989 33.7489 341.732 33.7489C339.068 33.7489 336.811 35.0581 334.644 36.7737C333.38 37.812 333.831 39.7532 334.644 40.2498C335.231 39.7532 335.592 39.4824 335.908 39.4824C336.495 39.4824 336.72 40.0693 336.54 41.0625L332.883 58.6691ZM371.573 55.8701C371.979 54.6512 371.257 53.2968 370.038 53.4774C368.819 56.9536 363.763 60.0235 360.286 60.0235C358.074 60.0235 356.449 58.7594 356.9 55.509C356.946 54.7415 357.081 53.9289 357.216 53.1614C365.343 40.7013 369.451 30.5887 369.451 25.6679C369.451 22.3723 367.374 20.5213 364.395 20.5213C356.133 20.5213 351.889 33.9295 349 56.8182C348.187 63.4545 351.528 66.1633 355.952 66.1633C361.776 66.1633 369.361 61.6036 371.573 55.8701ZM364.846 24.7199C365.568 24.7199 365.929 25.0359 365.929 26.1194C365.929 28.2412 363.582 37.2251 358.029 47.5182C360.196 34.2004 362.769 24.7199 364.846 24.7199Z" fill="#FBF0E9"/>
<path d="M37.1332 28.2063C35.3708 25.5157 32.6466 23.8621 28.958 23.8621C23.7769 23.8621 19.5268 26.0449 16.2129 30.7182C13.4766 34.5573 12.1092 38.7269 12.1092 43.3773C12.1092 47.1385 13.2429 50.1125 15.5117 52.3787C17.7805 54.6448 20.635 55.7597 24.0765 55.7597C27.2681 55.7597 30.0863 54.6206 32.5325 52.3652C32.8226 53.4761 33.4029 54.3116 34.2734 54.8852C34.5608 55.0746 34.9128 55.8282 35.2929 55.9558L44.0028 25.5224H37.9123L37.1332 28.2063ZM34.2277 42.3202C33.4284 44.6373 32.4814 46.3984 31.3826 47.6046C30.6156 48.4563 29.8392 49.0796 29.052 49.4758C28.0296 50.0259 26.8857 50.3113 25.7247 50.306C24.149 50.306 22.8286 49.7149 21.762 48.5261C20.6941 47.3387 20.1608 45.4863 20.1608 42.973C20.1608 41.0951 20.545 38.9364 21.3107 36.5024C22.0763 34.067 23.2168 32.1918 24.7293 30.8767C26.2432 29.5603 27.8914 28.9021 29.6726 28.9021C31.3302 28.9021 32.7057 29.5012 33.7911 30.6981C34.8805 31.8963 35.4232 33.6116 35.4232 35.8482C35.4232 37.847 35.0243 40.0043 34.2277 42.3202Z" fill="url(#paint0_linear_26_10)"/>
<path d="M46.2111 14.3543C42.149 12.4133 37.508 11.4434 32.2839 11.4434C26.129 11.4434 20.6578 12.647 15.869 15.0515C11.0829 17.456 7.31097 21.0587 4.55455 25.8582C1.79813 30.6564 0.421265 35.8388 0.421265 41.3987C0.421265 46.4655 1.63291 51.1522 4.05753 55.4561C6.48216 59.7613 10.1816 63.0188 15.1557 65.2231C19.8156 67.2904 25.3029 68.3758 31.5989 68.5061L33.1316 63.0443C32.875 63.0484 32.6386 63.0725 32.3766 63.0725C27.2372 63.0725 22.6714 62.2854 18.6845 60.711C14.6937 59.1367 11.596 56.6396 9.38903 53.2155C7.18201 49.7901 6.07783 45.99 6.07783 41.8151C6.07783 37.5206 7.06649 33.3887 9.04649 29.4206C11.0265 25.4525 13.9683 22.3751 17.8759 20.1869C21.7795 18.0013 26.5428 16.9079 32.1604 16.9079C37.4422 16.9079 41.7743 17.9718 45.1916 20.0633L46.7189 14.6176C46.5483 14.5303 46.3857 14.4376 46.2111 14.3543ZM111.808 16.1194H57.5431L56.1031 21.4925H105.189L67.6056 50.2079C67.2953 50.4457 66.7513 50.4188 66.398 50.1461L51.4217 38.6046L49.9669 44.0355L62.1304 53.409C64.9123 55.5528 69.3465 55.6401 72.0129 53.6037L110.321 24.3363L98.3346 69.0703C98.2177 69.5001 97.8026 69.8507 97.4104 69.8507H43.1457L41.7057 75.2239H95.9717C99.3272 75.2239 102.797 72.4621 103.706 69.069L116.245 22.2743C117.154 18.8812 115.163 16.1194 111.808 16.1194ZM34.7825 90H29.4093L53.5266 0H58.8998L34.7825 90Z" fill="url(#paint1_linear_26_10)"/>
<defs>
<linearGradient id="paint0_linear_26_10" x1="-9.78387" y1="29.2194" x2="2880.76" y2="1377.1" gradientUnits="userSpaceOnUse">
<stop stop-color="#DA6E2A"/>
<stop offset="1" stop-color="#E39E5A"/>
</linearGradient>
<linearGradient id="paint1_linear_26_10" x1="-10.2922" y1="2.65362" x2="10506.8" y2="4906.86" gradientUnits="userSpaceOnUse">
<stop stop-color="#DA6E2A"/>
<stop offset="1" stop-color="#E39E5A"/>
</linearGradient>
</defs>
</svg>
