<?xml version="1.0" standalone="no"?>
<!DOCTYPE svg PUBLIC "-//W3C//DTD SVG 20010904//EN"
 "http://www.w3.org/TR/2001/REC-SVG-20010904/DTD/svg10.dtd">
<svg version="1.0" xmlns="http://www.w3.org/2000/svg"
 width="936.000000pt" height="936.000000pt" viewBox="0 0 936.000000 936.000000"
 preserveAspectRatio="xMidYMid meet">
<metadata>
Created by potrace 1.14, written by Peter Selinger 2001-2017
</metadata>
<g transform="translate(0.000000,936.000000) scale(0.100000,-0.100000)"
fill="#000000" stroke="none">
<path d="M4245 8268 c-2 -7 -115 -427 -250 -933 -136 -506 -279 -1044 -320
-1195 -41 -151 -132 -493 -204 -760 -71 -267 -247 -924 -391 -1460 -144 -536
-371 -1387 -506 -1890 -135 -503 -247 -923 -250 -932 -5 -17 10 -18 210 -18
196 0 215 2 220 18 3 9 57 211 120 447 115 430 1083 4045 1326 4950 71 264
206 768 300 1120 94 352 173 646 175 653 3 9 -43 12 -211 12 -163 0 -216 -3
-219 -12z"/>
<path d="M2180 7346 c-713 -83 -1272 -369 -1652 -844 -258 -323 -437 -743
-505 -1182 -25 -161 -25 -529 0 -690 48 -309 155 -607 305 -848 355 -571 1017
-903 1937 -971 77 -6 160 -11 185 -11 l45 0 58 208 c31 114 57 212 57 217 0 6
-56 11 -143 12 -403 8 -763 80 -1078 218 -457 200 -789 613 -898 1118 -85 390
-25 858 161 1272 95 211 207 375 363 530 304 303 695 478 1195 536 158 19 530
16 675 -5 236 -34 427 -90 595 -177 52 -26 98 -45 101 -41 8 7 119 401 119
419 0 12 -178 89 -292 127 -104 35 -300 82 -428 102 -143 22 -639 28 -800 10z"/>
<path d="M4556 6938 c-33 -119 -96 -357 -96 -367 0 -8 542 -12 1957 -13 l1957
-3 -459 -351 c-253 -193 -932 -712 -1509 -1153 -807 -616 -1055 -801 -1076
-801 -22 0 -170 110 -637 469 -375 290 -610 465 -614 457 -9 -15 -109 -392
-109 -410 0 -18 977 -771 1055 -813 186 -99 446 -102 624 -7 36 19 757 563
1601 1208 844 646 1536 1173 1537 1172 1 -1 -33 -135 -76 -297 -273 -1017
-771 -2876 -817 -3049 -61 -228 -69 -254 -92 -272 -12 -10 -443 -14 -2200 -18
l-2186 -5 -52 -195 c-29 -107 -53 -203 -54 -213 0 -16 105 -17 2218 -15 l2217
3 73 27 c180 65 343 213 413 374 11 27 101 348 199 714 98 366 256 953 350
1305 557 2078 502 1859 498 1960 -3 64 -10 104 -25 137 -32 70 -103 141 -176
174 l-62 29 -2222 3 -2222 2 -15 -52z"/>
<path d="M2095 6359 c-361 -56 -635 -243 -869 -592 -121 -181 -210 -393 -256
-608 -34 -154 -40 -456 -12 -589 61 -293 234 -525 487 -652 187 -95 475 -123
690 -69 104 26 282 117 366 185 l66 54 22 -54 c16 -38 47 -79 108 -140 46 -47
88 -82 92 -78 9 10 691 2392 691 2412 0 9 -55 12 -239 12 l-240 0 -26 -87
c-40 -136 -35 -131 -79 -73 -93 121 -249 225 -401 266 -71 19 -311 27 -400 13z
m337 -400 c173 -37 302 -169 349 -359 9 -35 14 -109 13 -205 -1 -173 -21 -287
-85 -479 -76 -230 -160 -377 -277 -488 -132 -124 -256 -173 -425 -166 -126 5
-194 34 -278 117 -95 96 -136 209 -146 402 -12 234 55 545 164 764 150 300
428 468 685 414z"/>
</g>
</svg>
