<svg width="48" height="48" viewBox="0 0 48 48" fill="none" xmlns="http://www.w3.org/2000/svg">
<path d="M19.7578 15.0377C22.101 12.9874 25.8999 12.9874 28.2431 15.0377C30.5862 17.0879 30.5862 20.4121 28.2431 22.4623C27.8353 22.8192 27.3833 23.1139 26.9027 23.3465C25.4113 24.0683 24.0005 25.3431 24.0005 27V28.5M42 24C42 33.9411 33.9411 42 24 42C14.0589 42 6 33.9411 6 24C6 14.0589 14.0589 6 24 6C33.9411 6 42 14.0589 42 24ZM24 34.5H24.015V34.515H24V34.5Z" stroke="#3C3834" stroke-width="1.5" stroke-linecap="round" stroke-linejoin="round"/>
</svg>
