<svg width="64" height="64" viewBox="0 0 64 64" fill="none" xmlns="http://www.w3.org/2000/svg">
<path d="M47.9508 49.9328C44.299 45.1133 38.513 42 32 42C25.487 42 19.701 45.1133 16.0492 49.9328M47.9508 49.9328C52.8893 45.5369 56 39.1317 56 32C56 18.7452 45.2548 8 32 8C18.7452 8 8 18.7452 8 32C8 39.1317 11.1107 45.5369 16.0492 49.9328M47.9508 49.9328C43.7107 53.707 38.1231 56 32 56C25.8769 56 20.2894 53.707 16.0492 49.9328M40 26C40 30.4183 36.4183 34 32 34C27.5817 34 24 30.4183 24 26C24 21.5817 27.5817 18 32 18C36.4183 18 40 21.5817 40 26Z" stroke="#633103" stroke-width="1.5" stroke-linecap="round" stroke-linejoin="round"/>
</svg>
